<mxfile host="app.diagrams.net" modified="2023-06-30T15:11:07.909Z" agent="Mozilla/5.0 (Windows NT 10.0; Win64; x64) AppleWebKit/537.36 (KHTML, like Gecko) Chrome/114.0.0.0 Safari/537.36 Edg/114.0.1823.58" etag="MmmyFKCV4PrnsxVUdU7O" version="21.5.2" type="device" pages="2">
  <diagram name="arch" id="t-OXCBM75_guDQFJXikh">
    <mxGraphModel dx="2829" dy="1196" grid="1" gridSize="10" guides="1" tooltips="1" connect="1" arrows="1" fold="1" page="1" pageScale="1" pageWidth="827" pageHeight="1169" math="0" shadow="0">
      <root>
        <mxCell id="0" />
        <mxCell id="1" parent="0" />
        <mxCell id="BsjfcDH8OL25CWf0YW9Y-41" value="" style="swimlane;startSize=0;strokeColor=#FF9933;strokeWidth=3;dashed=1;dashPattern=8 8;" parent="1" vertex="1">
          <mxGeometry x="710" y="220" width="580" height="590" as="geometry" />
        </mxCell>
        <mxCell id="BsjfcDH8OL25CWf0YW9Y-42" value="&lt;font style=&quot;font-size: 19px;&quot;&gt;Model-FLOW #1&lt;/font&gt;" style="rounded=0;whiteSpace=wrap;html=1;" parent="BsjfcDH8OL25CWf0YW9Y-41" vertex="1">
          <mxGeometry x="50" y="100" width="220" height="50" as="geometry" />
        </mxCell>
        <mxCell id="BsjfcDH8OL25CWf0YW9Y-43" value="&lt;font style=&quot;font-size: 19px;&quot;&gt;Model-FLOW #2&lt;/font&gt;" style="rounded=0;whiteSpace=wrap;html=1;" parent="BsjfcDH8OL25CWf0YW9Y-41" vertex="1">
          <mxGeometry x="50" y="160" width="220" height="50" as="geometry" />
        </mxCell>
        <mxCell id="BsjfcDH8OL25CWf0YW9Y-44" value="&lt;font style=&quot;font-size: 19px;&quot;&gt;Model-FLOW #3&lt;/font&gt;" style="rounded=0;whiteSpace=wrap;html=1;" parent="BsjfcDH8OL25CWf0YW9Y-41" vertex="1">
          <mxGeometry x="290" y="100" width="220" height="50" as="geometry" />
        </mxCell>
        <mxCell id="BsjfcDH8OL25CWf0YW9Y-45" value="&lt;font style=&quot;font-size: 19px;&quot;&gt;Model-FLOW #4&lt;/font&gt;" style="rounded=0;whiteSpace=wrap;html=1;" parent="BsjfcDH8OL25CWf0YW9Y-41" vertex="1">
          <mxGeometry x="290" y="160" width="220" height="50" as="geometry" />
        </mxCell>
        <mxCell id="BsjfcDH8OL25CWf0YW9Y-46" value="&lt;font style=&quot;font-size: 19px;&quot;&gt;Machine #2 Extension&lt;br&gt;&lt;/font&gt;" style="text;html=1;strokeColor=none;fillColor=none;align=center;verticalAlign=middle;whiteSpace=wrap;rounded=0;" parent="BsjfcDH8OL25CWf0YW9Y-41" vertex="1">
          <mxGeometry x="20" y="20" width="200" height="30" as="geometry" />
        </mxCell>
        <mxCell id="BsjfcDH8OL25CWf0YW9Y-47" value="&lt;font style=&quot;font-size: 19px;&quot;&gt;Model-FLOW #4&lt;/font&gt;" style="rounded=0;whiteSpace=wrap;html=1;" parent="BsjfcDH8OL25CWf0YW9Y-41" vertex="1">
          <mxGeometry x="50" y="220" width="220" height="50" as="geometry" />
        </mxCell>
        <mxCell id="BsjfcDH8OL25CWf0YW9Y-48" value="&lt;font style=&quot;font-size: 19px;&quot;&gt;Model-FLOW #4&lt;/font&gt;" style="rounded=0;whiteSpace=wrap;html=1;" parent="BsjfcDH8OL25CWf0YW9Y-41" vertex="1">
          <mxGeometry x="290" y="220" width="220" height="50" as="geometry" />
        </mxCell>
        <mxCell id="BsjfcDH8OL25CWf0YW9Y-50" value="&lt;font style=&quot;font-size: 19px;&quot;&gt;Model-SPEED #1&lt;/font&gt;" style="rounded=0;whiteSpace=wrap;html=1;" parent="BsjfcDH8OL25CWf0YW9Y-41" vertex="1">
          <mxGeometry x="50" y="335" width="220" height="50" as="geometry" />
        </mxCell>
        <mxCell id="BsjfcDH8OL25CWf0YW9Y-52" value="&lt;font style=&quot;font-size: 19px;&quot;&gt;Model-SPEED&amp;nbsp;#2&lt;/font&gt;" style="rounded=0;whiteSpace=wrap;html=1;" parent="BsjfcDH8OL25CWf0YW9Y-41" vertex="1">
          <mxGeometry x="290" y="335" width="220" height="50" as="geometry" />
        </mxCell>
        <mxCell id="BsjfcDH8OL25CWf0YW9Y-55" value="&lt;font style=&quot;font-size: 19px;&quot;&gt;Model-OCCUPANCY #1&lt;/font&gt;" style="rounded=0;whiteSpace=wrap;html=1;" parent="BsjfcDH8OL25CWf0YW9Y-41" vertex="1">
          <mxGeometry x="50" y="465" width="220" height="50" as="geometry" />
        </mxCell>
        <mxCell id="BsjfcDH8OL25CWf0YW9Y-56" value="&lt;font style=&quot;font-size: 19px;&quot;&gt;Model-OCCUPANCY&amp;nbsp;&amp;nbsp;#2&lt;/font&gt;" style="rounded=0;whiteSpace=wrap;html=1;" parent="BsjfcDH8OL25CWf0YW9Y-41" vertex="1">
          <mxGeometry x="290" y="465" width="220" height="50" as="geometry" />
        </mxCell>
        <mxCell id="BsjfcDH8OL25CWf0YW9Y-78" value="" style="swimlane;startSize=0;strokeColor=#CC0066;strokeWidth=3;dashed=1;dashPattern=1 2;" parent="BsjfcDH8OL25CWf0YW9Y-41" vertex="1">
          <mxGeometry x="20" y="70" width="520" height="220" as="geometry" />
        </mxCell>
        <mxCell id="BsjfcDH8OL25CWf0YW9Y-80" value="" style="swimlane;startSize=0;strokeColor=#CC0066;strokeWidth=3;dashed=1;dashPattern=1 2;" parent="BsjfcDH8OL25CWf0YW9Y-41" vertex="1">
          <mxGeometry x="20" y="320" width="520" height="80" as="geometry" />
        </mxCell>
        <mxCell id="BsjfcDH8OL25CWf0YW9Y-87" value="" style="swimlane;startSize=0;strokeColor=#CC0066;strokeWidth=3;dashed=1;dashPattern=1 2;" parent="BsjfcDH8OL25CWf0YW9Y-41" vertex="1">
          <mxGeometry x="20" y="450" width="520" height="80" as="geometry" />
        </mxCell>
        <mxCell id="BsjfcDH8OL25CWf0YW9Y-91" value="&lt;font style=&quot;font-size: 21px;&quot;&gt;&lt;b&gt;Nodes&lt;/b&gt;&lt;/font&gt;" style="text;html=1;strokeColor=none;fillColor=none;align=center;verticalAlign=middle;whiteSpace=wrap;rounded=0;" parent="BsjfcDH8OL25CWf0YW9Y-41" vertex="1">
          <mxGeometry x="230" y="20" width="60" height="30" as="geometry" />
        </mxCell>
        <mxCell id="BsjfcDH8OL25CWf0YW9Y-15" value="" style="swimlane;startSize=0;strokeColor=#FF9933;strokeWidth=3;" parent="1" vertex="1">
          <mxGeometry x="130" y="220" width="580" height="590" as="geometry" />
        </mxCell>
        <mxCell id="BsjfcDH8OL25CWf0YW9Y-14" value="&lt;font style=&quot;font-size: 21px;&quot;&gt;API&lt;br&gt;Gateway&lt;/font&gt;" style="rounded=0;whiteSpace=wrap;html=1;" parent="BsjfcDH8OL25CWf0YW9Y-15" vertex="1">
          <mxGeometry x="30" y="200" width="120" height="190" as="geometry" />
        </mxCell>
        <mxCell id="BsjfcDH8OL25CWf0YW9Y-7" value="&lt;font style=&quot;font-size: 21px;&quot;&gt;System-FLOW&lt;/font&gt;" style="rounded=0;whiteSpace=wrap;html=1;" parent="BsjfcDH8OL25CWf0YW9Y-15" vertex="1">
          <mxGeometry x="200" y="80" width="220" height="80" as="geometry" />
        </mxCell>
        <mxCell id="BsjfcDH8OL25CWf0YW9Y-18" value="" style="endArrow=classic;startArrow=classic;html=1;rounded=0;exitX=1.025;exitY=0.074;exitDx=0;exitDy=0;exitPerimeter=0;entryX=0.012;entryY=0.601;entryDx=0;entryDy=0;entryPerimeter=0;" parent="BsjfcDH8OL25CWf0YW9Y-15" source="BsjfcDH8OL25CWf0YW9Y-14" target="BsjfcDH8OL25CWf0YW9Y-7" edge="1">
          <mxGeometry width="50" height="50" relative="1" as="geometry">
            <mxPoint x="170" y="210" as="sourcePoint" />
            <mxPoint x="270" y="120" as="targetPoint" />
          </mxGeometry>
        </mxCell>
        <mxCell id="BsjfcDH8OL25CWf0YW9Y-19" value="&lt;font style=&quot;font-size: 21px;&quot;&gt;System-SPEED&lt;/font&gt;" style="rounded=0;whiteSpace=wrap;html=1;" parent="BsjfcDH8OL25CWf0YW9Y-15" vertex="1">
          <mxGeometry x="240" y="200" width="220" height="80" as="geometry" />
        </mxCell>
        <mxCell id="BsjfcDH8OL25CWf0YW9Y-20" value="&lt;font style=&quot;font-size: 21px;&quot;&gt;System-OCCUPANCY&lt;/font&gt;" style="rounded=0;whiteSpace=wrap;html=1;" parent="BsjfcDH8OL25CWf0YW9Y-15" vertex="1">
          <mxGeometry x="274" y="320" width="220" height="80" as="geometry" />
        </mxCell>
        <mxCell id="BsjfcDH8OL25CWf0YW9Y-21" value="&lt;font style=&quot;font-size: 21px;&quot;&gt;System- ......&lt;/font&gt;" style="rounded=0;whiteSpace=wrap;html=1;" parent="BsjfcDH8OL25CWf0YW9Y-15" vertex="1">
          <mxGeometry x="290" y="450" width="220" height="80" as="geometry" />
        </mxCell>
        <mxCell id="BsjfcDH8OL25CWf0YW9Y-22" value="" style="endArrow=classic;startArrow=classic;html=1;rounded=0;entryX=0;entryY=0.5;entryDx=0;entryDy=0;exitX=1.003;exitY=0.333;exitDx=0;exitDy=0;exitPerimeter=0;" parent="BsjfcDH8OL25CWf0YW9Y-15" source="BsjfcDH8OL25CWf0YW9Y-14" target="BsjfcDH8OL25CWf0YW9Y-19" edge="1">
          <mxGeometry width="50" height="50" relative="1" as="geometry">
            <mxPoint x="170" y="270" as="sourcePoint" />
            <mxPoint x="270" y="240" as="targetPoint" />
          </mxGeometry>
        </mxCell>
        <mxCell id="BsjfcDH8OL25CWf0YW9Y-23" value="" style="endArrow=classic;startArrow=classic;html=1;rounded=0;entryX=0;entryY=0.5;entryDx=0;entryDy=0;exitX=1.003;exitY=0.639;exitDx=0;exitDy=0;exitPerimeter=0;" parent="BsjfcDH8OL25CWf0YW9Y-15" source="BsjfcDH8OL25CWf0YW9Y-14" target="BsjfcDH8OL25CWf0YW9Y-20" edge="1">
          <mxGeometry width="50" height="50" relative="1" as="geometry">
            <mxPoint x="170" y="310" as="sourcePoint" />
            <mxPoint x="270" y="360" as="targetPoint" />
          </mxGeometry>
        </mxCell>
        <mxCell id="BsjfcDH8OL25CWf0YW9Y-26" value="&lt;font style=&quot;font-size: 19px;&quot;&gt;Machine #2&lt;br&gt;&lt;/font&gt;" style="text;html=1;strokeColor=none;fillColor=none;align=center;verticalAlign=middle;whiteSpace=wrap;rounded=0;" parent="BsjfcDH8OL25CWf0YW9Y-15" vertex="1">
          <mxGeometry x="20" y="20" width="110" height="30" as="geometry" />
        </mxCell>
        <mxCell id="BsjfcDH8OL25CWf0YW9Y-27" value="" style="endArrow=classic;startArrow=classic;html=1;rounded=0;entryX=0;entryY=0.5;entryDx=0;entryDy=0;exitX=0.986;exitY=0.849;exitDx=0;exitDy=0;exitPerimeter=0;" parent="BsjfcDH8OL25CWf0YW9Y-15" source="BsjfcDH8OL25CWf0YW9Y-14" target="BsjfcDH8OL25CWf0YW9Y-21" edge="1">
          <mxGeometry width="50" height="50" relative="1" as="geometry">
            <mxPoint x="180" y="320" as="sourcePoint" />
            <mxPoint x="280" y="370" as="targetPoint" />
          </mxGeometry>
        </mxCell>
        <mxCell id="BsjfcDH8OL25CWf0YW9Y-90" value="&lt;font style=&quot;font-size: 21px;&quot;&gt;&lt;b&gt;Core&lt;/b&gt;&lt;/font&gt;" style="text;html=1;strokeColor=none;fillColor=none;align=center;verticalAlign=middle;whiteSpace=wrap;rounded=0;" parent="BsjfcDH8OL25CWf0YW9Y-15" vertex="1">
          <mxGeometry x="130" y="20" width="60" height="30" as="geometry" />
        </mxCell>
        <mxCell id="BsjfcDH8OL25CWf0YW9Y-101" value="&lt;font style=&quot;font-size: 19px;&quot;&gt;Per Node&lt;br style=&quot;border-color: var(--border-color);&quot;&gt;Communication&lt;br style=&quot;border-color: var(--border-color);&quot;&gt;Channel&lt;/font&gt;" style="text;html=1;align=center;verticalAlign=middle;resizable=0;points=[];autosize=1;strokeColor=none;fillColor=none;" parent="BsjfcDH8OL25CWf0YW9Y-15" vertex="1">
          <mxGeometry x="420" y="50" width="160" height="80" as="geometry" />
        </mxCell>
        <mxCell id="BsjfcDH8OL25CWf0YW9Y-8" value="&lt;font style=&quot;font-size: 20px;&quot;&gt;User&lt;/font&gt;" style="shape=umlActor;verticalLabelPosition=bottom;verticalAlign=top;html=1;outlineConnect=0;" parent="1" vertex="1">
          <mxGeometry x="-390" y="450" width="60" height="120" as="geometry" />
        </mxCell>
        <mxCell id="BsjfcDH8OL25CWf0YW9Y-11" value="&lt;font style=&quot;font-size: 21px;&quot;&gt;Front End&lt;/font&gt;" style="rounded=0;whiteSpace=wrap;html=1;" parent="1" vertex="1">
          <mxGeometry x="-160" y="465" width="150" height="90" as="geometry" />
        </mxCell>
        <mxCell id="BsjfcDH8OL25CWf0YW9Y-12" value="" style="endArrow=classic;startArrow=classic;html=1;rounded=0;" parent="1" edge="1">
          <mxGeometry width="50" height="50" relative="1" as="geometry">
            <mxPoint x="-320" y="510" as="sourcePoint" />
            <mxPoint x="-170" y="510" as="targetPoint" />
          </mxGeometry>
        </mxCell>
        <mxCell id="BsjfcDH8OL25CWf0YW9Y-13" value="" style="endArrow=classic;startArrow=classic;html=1;rounded=0;" parent="1" edge="1">
          <mxGeometry width="50" height="50" relative="1" as="geometry">
            <mxPoint y="510" as="sourcePoint" />
            <mxPoint x="150" y="510" as="targetPoint" />
          </mxGeometry>
        </mxCell>
        <mxCell id="BsjfcDH8OL25CWf0YW9Y-16" value="" style="swimlane;startSize=0;strokeColor=#9900ff;strokeWidth=3;" parent="1" vertex="1">
          <mxGeometry x="-190" y="400" width="210" height="190" as="geometry" />
        </mxCell>
        <mxCell id="BsjfcDH8OL25CWf0YW9Y-25" value="&lt;font style=&quot;font-size: 19px;&quot;&gt;Machine #1&lt;/font&gt;" style="text;html=1;strokeColor=none;fillColor=none;align=center;verticalAlign=middle;whiteSpace=wrap;rounded=0;" parent="BsjfcDH8OL25CWf0YW9Y-16" vertex="1">
          <mxGeometry x="20" y="10" width="110" height="30" as="geometry" />
        </mxCell>
        <mxCell id="BsjfcDH8OL25CWf0YW9Y-59" value="&lt;font style=&quot;font-size: 25px;&quot;&gt;DataBase&lt;/font&gt;" style="shape=cylinder3;whiteSpace=wrap;html=1;boundedLbl=1;backgroundOutline=1;size=15;" parent="1" vertex="1">
          <mxGeometry x="620" y="880" width="220" height="170" as="geometry" />
        </mxCell>
        <mxCell id="BsjfcDH8OL25CWf0YW9Y-60" value="" style="endArrow=none;html=1;rounded=0;exitX=1.014;exitY=0.412;exitDx=0;exitDy=0;exitPerimeter=0;entryX=0.5;entryY=1;entryDx=0;entryDy=0;strokeColor=#0000FF;strokeWidth=5;" parent="1" source="BsjfcDH8OL25CWf0YW9Y-59" target="BsjfcDH8OL25CWf0YW9Y-41" edge="1">
          <mxGeometry width="50" height="50" relative="1" as="geometry">
            <mxPoint x="690" y="740" as="sourcePoint" />
            <mxPoint x="740" y="690" as="targetPoint" />
            <Array as="points">
              <mxPoint x="1000" y="950" />
            </Array>
          </mxGeometry>
        </mxCell>
        <mxCell id="BsjfcDH8OL25CWf0YW9Y-61" value="&lt;font style=&quot;font-size: 25px;&quot;&gt;Model&lt;br&gt;Files&lt;/font&gt;" style="shape=note;whiteSpace=wrap;html=1;backgroundOutline=1;darkOpacity=0.05;" parent="1" vertex="1">
          <mxGeometry x="1480" y="410" width="120" height="135" as="geometry" />
        </mxCell>
        <mxCell id="BsjfcDH8OL25CWf0YW9Y-62" value="" style="endArrow=none;html=1;rounded=0;strokeColor=#007FFF;strokeWidth=5;exitX=1.004;exitY=0.707;exitDx=0;exitDy=0;exitPerimeter=0;" parent="1" edge="1">
          <mxGeometry width="50" height="50" relative="1" as="geometry">
            <mxPoint x="1290.3199999999997" y="477.1300000000001" as="sourcePoint" />
            <mxPoint x="1448" y="478" as="targetPoint" />
          </mxGeometry>
        </mxCell>
        <mxCell id="BsjfcDH8OL25CWf0YW9Y-64" value="&lt;span style=&quot;font-size: 25px;&quot;&gt;Cluster Files&lt;/span&gt;" style="shape=note;whiteSpace=wrap;html=1;backgroundOutline=1;darkOpacity=0.05;" parent="1" vertex="1">
          <mxGeometry x="1480" y="220" width="120" height="135" as="geometry" />
        </mxCell>
        <mxCell id="BsjfcDH8OL25CWf0YW9Y-65" value="" style="endArrow=none;html=1;rounded=0;strokeColor=#007FFF;strokeWidth=5;exitX=1.004;exitY=0.707;exitDx=0;exitDy=0;exitPerimeter=0;" parent="1" edge="1">
          <mxGeometry width="50" height="50" relative="1" as="geometry">
            <mxPoint x="1290" y="287" as="sourcePoint" />
            <mxPoint x="1448" y="288" as="targetPoint" />
          </mxGeometry>
        </mxCell>
        <mxCell id="BsjfcDH8OL25CWf0YW9Y-66" value="&lt;font style=&quot;font-size: 25px;&quot;&gt;Model&lt;br&gt;Libs&lt;/font&gt;" style="shape=note;whiteSpace=wrap;html=1;backgroundOutline=1;darkOpacity=0.05;" parent="1" vertex="1">
          <mxGeometry x="1480" y="610" width="120" height="135" as="geometry" />
        </mxCell>
        <mxCell id="BsjfcDH8OL25CWf0YW9Y-67" value="" style="endArrow=none;html=1;rounded=0;strokeColor=#007FFF;strokeWidth=5;exitX=1.004;exitY=0.707;exitDx=0;exitDy=0;exitPerimeter=0;" parent="1" edge="1">
          <mxGeometry width="50" height="50" relative="1" as="geometry">
            <mxPoint x="1289.9999999999998" y="677.1300000000001" as="sourcePoint" />
            <mxPoint x="1447.68" y="678" as="targetPoint" />
          </mxGeometry>
        </mxCell>
        <mxCell id="BsjfcDH8OL25CWf0YW9Y-85" value="&lt;span style=&quot;font-size: 25px;&quot;&gt;Local HDF recoreds&lt;/span&gt;" style="shape=cylinder3;whiteSpace=wrap;html=1;boundedLbl=1;backgroundOutline=1;size=15;" parent="1" vertex="1">
          <mxGeometry x="1140" y="880" width="220" height="170" as="geometry" />
        </mxCell>
        <mxCell id="BsjfcDH8OL25CWf0YW9Y-86" value="" style="endArrow=none;html=1;rounded=0;strokeColor=#3399FF;strokeWidth=5;exitX=0.003;exitY=0.42;exitDx=0;exitDy=0;exitPerimeter=0;" parent="1" source="BsjfcDH8OL25CWf0YW9Y-85" edge="1">
          <mxGeometry width="50" height="50" relative="1" as="geometry">
            <mxPoint x="1110" y="950" as="sourcePoint" />
            <mxPoint x="1000" y="820" as="targetPoint" />
            <Array as="points">
              <mxPoint x="1000" y="950" />
            </Array>
          </mxGeometry>
        </mxCell>
        <mxCell id="BsjfcDH8OL25CWf0YW9Y-88" value="&lt;font style=&quot;font-size: 25px;&quot;&gt;Configuration File&lt;/font&gt;" style="shape=note;whiteSpace=wrap;html=1;backgroundOutline=1;darkOpacity=0.05;" parent="1" vertex="1">
          <mxGeometry x="-80" y="960" width="270" height="135" as="geometry" />
        </mxCell>
        <mxCell id="BsjfcDH8OL25CWf0YW9Y-89" value="" style="endArrow=classic;html=1;rounded=0;exitX=0.752;exitY=-0.029;exitDx=0;exitDy=0;exitPerimeter=0;entryX=0.184;entryY=1.011;entryDx=0;entryDy=0;entryPerimeter=0;strokeWidth=4;fontColor=#CC00CC;strokeColor=#009900;" parent="1" source="BsjfcDH8OL25CWf0YW9Y-88" target="BsjfcDH8OL25CWf0YW9Y-15" edge="1">
          <mxGeometry width="50" height="50" relative="1" as="geometry">
            <mxPoint x="660" y="650" as="sourcePoint" />
            <mxPoint x="710" y="600" as="targetPoint" />
          </mxGeometry>
        </mxCell>
        <mxCell id="BsjfcDH8OL25CWf0YW9Y-92" value="" style="endArrow=classic;startArrow=classic;html=1;rounded=0;exitX=1;exitY=0.5;exitDx=0;exitDy=0;entryX=-0.004;entryY=0.361;entryDx=0;entryDy=0;entryPerimeter=0;strokeColor=#0000FF;strokeWidth=4;" parent="1" source="BsjfcDH8OL25CWf0YW9Y-7" target="BsjfcDH8OL25CWf0YW9Y-78" edge="1">
          <mxGeometry width="50" height="50" relative="1" as="geometry">
            <mxPoint x="660" y="650" as="sourcePoint" />
            <mxPoint x="710" y="600" as="targetPoint" />
          </mxGeometry>
        </mxCell>
        <mxCell id="BsjfcDH8OL25CWf0YW9Y-93" value="" style="endArrow=none;html=1;rounded=0;strokeColor=#0000FF;strokeWidth=5;exitX=1.004;exitY=0.707;exitDx=0;exitDy=0;exitPerimeter=0;entryX=0;entryY=0.5;entryDx=0;entryDy=0;entryPerimeter=0;" parent="1" target="BsjfcDH8OL25CWf0YW9Y-64" edge="1">
          <mxGeometry width="50" height="50" relative="1" as="geometry">
            <mxPoint x="1289.68" y="287" as="sourcePoint" />
            <mxPoint x="1447.68" y="288" as="targetPoint" />
          </mxGeometry>
        </mxCell>
        <mxCell id="BsjfcDH8OL25CWf0YW9Y-94" value="" style="endArrow=none;html=1;rounded=0;strokeColor=#0000FF;strokeWidth=5;exitX=1.004;exitY=0.707;exitDx=0;exitDy=0;exitPerimeter=0;entryX=0;entryY=0.5;entryDx=0;entryDy=0;entryPerimeter=0;" parent="1" target="BsjfcDH8OL25CWf0YW9Y-61" edge="1">
          <mxGeometry width="50" height="50" relative="1" as="geometry">
            <mxPoint x="1289.9999999999998" y="477.1300000000001" as="sourcePoint" />
            <mxPoint x="1447.68" y="478" as="targetPoint" />
          </mxGeometry>
        </mxCell>
        <mxCell id="BsjfcDH8OL25CWf0YW9Y-95" value="" style="endArrow=none;html=1;rounded=0;strokeColor=#0000FF;strokeWidth=5;exitX=1.004;exitY=0.707;exitDx=0;exitDy=0;exitPerimeter=0;entryX=0;entryY=0.5;entryDx=0;entryDy=0;entryPerimeter=0;" parent="1" target="BsjfcDH8OL25CWf0YW9Y-66" edge="1">
          <mxGeometry width="50" height="50" relative="1" as="geometry">
            <mxPoint x="1289.6799999999998" y="677.1300000000001" as="sourcePoint" />
            <mxPoint x="1447.3600000000001" y="678" as="targetPoint" />
          </mxGeometry>
        </mxCell>
        <mxCell id="BsjfcDH8OL25CWf0YW9Y-96" value="" style="endArrow=none;html=1;rounded=0;strokeColor=#0000FF;strokeWidth=5;exitX=0.003;exitY=0.42;exitDx=0;exitDy=0;exitPerimeter=0;" parent="1" edge="1">
          <mxGeometry width="50" height="50" relative="1" as="geometry">
            <mxPoint x="1140.68" y="951" as="sourcePoint" />
            <mxPoint x="999.68" y="820" as="targetPoint" />
            <Array as="points">
              <mxPoint x="999.68" y="950" />
            </Array>
          </mxGeometry>
        </mxCell>
        <mxCell id="BsjfcDH8OL25CWf0YW9Y-102" value="&lt;font style=&quot;font-size: 19px;&quot;&gt;Per Node&lt;br style=&quot;border-color: var(--border-color);&quot;&gt;Communication&lt;br style=&quot;border-color: var(--border-color);&quot;&gt;Channel&lt;/font&gt;" style="text;html=1;align=center;verticalAlign=middle;resizable=0;points=[];autosize=1;strokeColor=none;fillColor=none;" parent="1" vertex="1">
          <mxGeometry x="1309.9999999999998" y="210" width="160" height="80" as="geometry" />
        </mxCell>
        <mxCell id="BsjfcDH8OL25CWf0YW9Y-103" value="&lt;font style=&quot;font-size: 19px;&quot;&gt;Per Node&lt;br style=&quot;border-color: var(--border-color);&quot;&gt;Communication&lt;br style=&quot;border-color: var(--border-color);&quot;&gt;Channel&lt;/font&gt;" style="text;html=1;align=center;verticalAlign=middle;resizable=0;points=[];autosize=1;strokeColor=none;fillColor=none;" parent="1" vertex="1">
          <mxGeometry x="1309.9999999999998" y="400" width="160" height="80" as="geometry" />
        </mxCell>
        <mxCell id="BsjfcDH8OL25CWf0YW9Y-104" value="&lt;font style=&quot;font-size: 19px;&quot;&gt;Per Node&lt;br style=&quot;border-color: var(--border-color);&quot;&gt;Communication&lt;br style=&quot;border-color: var(--border-color);&quot;&gt;Channel&lt;/font&gt;" style="text;html=1;align=center;verticalAlign=middle;resizable=0;points=[];autosize=1;strokeColor=none;fillColor=none;" parent="1" vertex="1">
          <mxGeometry x="1309.9999999999998" y="600" width="160" height="80" as="geometry" />
        </mxCell>
        <mxCell id="BsjfcDH8OL25CWf0YW9Y-105" value="&lt;font style=&quot;font-size: 19px;&quot;&gt;Per Node&lt;br style=&quot;border-color: var(--border-color);&quot;&gt;Communication&lt;br style=&quot;border-color: var(--border-color);&quot;&gt;Channel&lt;/font&gt;" style="text;html=1;align=center;verticalAlign=middle;resizable=0;points=[];autosize=1;strokeColor=none;fillColor=none;" parent="1" vertex="1">
          <mxGeometry x="920" y="960" width="160" height="80" as="geometry" />
        </mxCell>
        <mxCell id="BsjfcDH8OL25CWf0YW9Y-109" value="&lt;font style=&quot;font-size: 20px;&quot;&gt;Control the lauch &lt;br&gt;of the Core and Nodes&lt;/font&gt;" style="text;html=1;align=center;verticalAlign=middle;resizable=0;points=[];autosize=1;strokeColor=none;fillColor=none;" parent="1" vertex="1">
          <mxGeometry x="160" y="880" width="220" height="60" as="geometry" />
        </mxCell>
      </root>
    </mxGraphModel>
  </diagram>
  <diagram id="2nl2Z_TFR53_mF55IA4R" name="design">
    <mxGraphModel dx="3656" dy="2365" grid="1" gridSize="10" guides="1" tooltips="1" connect="1" arrows="1" fold="1" page="1" pageScale="1" pageWidth="827" pageHeight="1169" math="0" shadow="0">
      <root>
        <mxCell id="0" />
        <mxCell id="1" parent="0" />
        <mxCell id="p0LioKt5p2tRiZTA31mQ-1" value="" style="swimlane;startSize=0;" parent="1" vertex="1">
          <mxGeometry x="-680" y="270" width="620" height="550" as="geometry" />
        </mxCell>
        <mxCell id="p0LioKt5p2tRiZTA31mQ-4" value="&lt;font style=&quot;font-size: 33px;&quot;&gt;Core&lt;/font&gt;" style="text;html=1;strokeColor=none;fillColor=none;align=center;verticalAlign=middle;whiteSpace=wrap;rounded=0;" parent="p0LioKt5p2tRiZTA31mQ-1" vertex="1">
          <mxGeometry x="50" y="10" width="60" height="30" as="geometry" />
        </mxCell>
        <mxCell id="p0LioKt5p2tRiZTA31mQ-7" value="&lt;font style=&quot;font-size: 20px;&quot;&gt;Config&lt;/font&gt;" style="rounded=0;whiteSpace=wrap;html=1;" parent="p0LioKt5p2tRiZTA31mQ-1" vertex="1">
          <mxGeometry x="20" y="80" width="100" height="120" as="geometry" />
        </mxCell>
        <mxCell id="Imkr-QkAkfUDr95EVoMw-3" value="" style="swimlane;startSize=0;" parent="p0LioKt5p2tRiZTA31mQ-1" vertex="1">
          <mxGeometry x="20" y="240" width="380" height="260" as="geometry" />
        </mxCell>
        <mxCell id="Imkr-QkAkfUDr95EVoMw-5" value="&lt;span style=&quot;font-size: 20px;&quot;&gt;HTTP&lt;br&gt;Server&lt;br&gt;&lt;/span&gt;" style="rounded=0;whiteSpace=wrap;html=1;" parent="Imkr-QkAkfUDr95EVoMw-3" vertex="1">
          <mxGeometry x="20" y="75" width="100" height="120" as="geometry" />
        </mxCell>
        <mxCell id="Imkr-QkAkfUDr95EVoMw-9" value="&lt;span style=&quot;font-size: 20px;&quot;&gt;API Handler&lt;/span&gt;" style="rounded=0;whiteSpace=wrap;html=1;" parent="Imkr-QkAkfUDr95EVoMw-3" vertex="1">
          <mxGeometry x="140" y="75" width="100" height="120" as="geometry" />
        </mxCell>
        <mxCell id="Imkr-QkAkfUDr95EVoMw-10" value="&lt;font style=&quot;font-size: 29px;&quot;&gt;Web Env&lt;/font&gt;" style="text;html=1;strokeColor=none;fillColor=none;align=center;verticalAlign=middle;whiteSpace=wrap;rounded=0;" parent="Imkr-QkAkfUDr95EVoMw-3" vertex="1">
          <mxGeometry x="30" y="20" width="140" height="30" as="geometry" />
        </mxCell>
        <mxCell id="Imkr-QkAkfUDr95EVoMw-7" value="&lt;span style=&quot;font-size: 20px;&quot;&gt;Spawner&lt;/span&gt;" style="rounded=0;whiteSpace=wrap;html=1;" parent="Imkr-QkAkfUDr95EVoMw-3" vertex="1">
          <mxGeometry x="260" y="75" width="100" height="120" as="geometry" />
        </mxCell>
        <mxCell id="Imkr-QkAkfUDr95EVoMw-11" value="&lt;span style=&quot;font-size: 22px;&quot;&gt;Model&lt;br&gt;Factory&lt;br&gt;&lt;/span&gt;" style="rounded=0;whiteSpace=wrap;html=1;" parent="p0LioKt5p2tRiZTA31mQ-1" vertex="1">
          <mxGeometry x="290" y="80" width="140" height="120" as="geometry" />
        </mxCell>
        <mxCell id="Imkr-QkAkfUDr95EVoMw-12" value="&lt;span style=&quot;font-size: 22px;&quot;&gt;Model&lt;br&gt;&lt;/span&gt;" style="rounded=0;whiteSpace=wrap;html=1;" parent="p0LioKt5p2tRiZTA31mQ-1" vertex="1">
          <mxGeometry x="460" y="80" width="140" height="120" as="geometry" />
        </mxCell>
        <mxCell id="Imkr-QkAkfUDr95EVoMw-13" value="&lt;span style=&quot;font-size: 20px;&quot;&gt;Logger&lt;/span&gt;" style="rounded=0;whiteSpace=wrap;html=1;" parent="p0LioKt5p2tRiZTA31mQ-1" vertex="1">
          <mxGeometry x="150" y="80" width="100" height="120" as="geometry" />
        </mxCell>
        <mxCell id="Imkr-QkAkfUDr95EVoMw-14" value="&lt;span style=&quot;font-size: 22px;&quot;&gt;System&lt;br&gt;&lt;/span&gt;" style="rounded=0;whiteSpace=wrap;html=1;" parent="p0LioKt5p2tRiZTA31mQ-1" vertex="1">
          <mxGeometry x="440" y="315" width="140" height="120" as="geometry" />
        </mxCell>
        <mxCell id="Imkr-QkAkfUDr95EVoMw-15" value="" style="endArrow=none;dashed=1;html=1;rounded=0;exitX=1;exitY=0.5;exitDx=0;exitDy=0;entryX=0;entryY=0.5;entryDx=0;entryDy=0;strokeWidth=3;" parent="p0LioKt5p2tRiZTA31mQ-1" source="Imkr-QkAkfUDr95EVoMw-7" target="Imkr-QkAkfUDr95EVoMw-14" edge="1">
          <mxGeometry width="50" height="50" relative="1" as="geometry">
            <mxPoint x="450" y="370" as="sourcePoint" />
            <mxPoint x="500" y="320" as="targetPoint" />
          </mxGeometry>
        </mxCell>
        <mxCell id="Imkr-QkAkfUDr95EVoMw-16" value="" style="endArrow=none;dashed=1;html=1;rounded=0;exitX=0.5;exitY=0;exitDx=0;exitDy=0;entryX=0.5;entryY=1;entryDx=0;entryDy=0;strokeWidth=3;" parent="p0LioKt5p2tRiZTA31mQ-1" source="Imkr-QkAkfUDr95EVoMw-7" target="Imkr-QkAkfUDr95EVoMw-11" edge="1">
          <mxGeometry width="50" height="50" relative="1" as="geometry">
            <mxPoint x="390" y="385" as="sourcePoint" />
            <mxPoint x="450" y="385" as="targetPoint" />
          </mxGeometry>
        </mxCell>
        <mxCell id="Imkr-QkAkfUDr95EVoMw-17" value="" style="endArrow=none;dashed=1;html=1;rounded=0;exitX=0.5;exitY=1;exitDx=0;exitDy=0;entryX=0.5;entryY=0;entryDx=0;entryDy=0;strokeWidth=3;" parent="p0LioKt5p2tRiZTA31mQ-1" source="Imkr-QkAkfUDr95EVoMw-12" target="Imkr-QkAkfUDr95EVoMw-14" edge="1">
          <mxGeometry width="50" height="50" relative="1" as="geometry">
            <mxPoint x="430" y="260" as="sourcePoint" />
            <mxPoint x="490" y="260" as="targetPoint" />
          </mxGeometry>
        </mxCell>
        <mxCell id="Imkr-QkAkfUDr95EVoMw-21" value="" style="endArrow=none;dashed=1;html=1;rounded=0;exitX=0.5;exitY=1;exitDx=0;exitDy=0;entryX=0.5;entryY=1;entryDx=0;entryDy=0;strokeWidth=3;" parent="p0LioKt5p2tRiZTA31mQ-1" source="Imkr-QkAkfUDr95EVoMw-14" target="Imkr-QkAkfUDr95EVoMw-9" edge="1">
          <mxGeometry width="50" height="50" relative="1" as="geometry">
            <mxPoint x="340" y="325" as="sourcePoint" />
            <mxPoint x="370" y="210" as="targetPoint" />
            <Array as="points">
              <mxPoint x="510" y="480" />
              <mxPoint x="210" y="480" />
            </Array>
          </mxGeometry>
        </mxCell>
        <mxCell id="p0LioKt5p2tRiZTA31mQ-3" value="" style="swimlane;startSize=0;" parent="1" vertex="1">
          <mxGeometry x="20" y="270" width="620" height="550" as="geometry" />
        </mxCell>
        <mxCell id="p0LioKt5p2tRiZTA31mQ-5" value="&lt;font style=&quot;font-size: 33px;&quot;&gt;Node&lt;/font&gt;" style="text;html=1;strokeColor=none;fillColor=none;align=center;verticalAlign=middle;whiteSpace=wrap;rounded=0;" parent="p0LioKt5p2tRiZTA31mQ-3" vertex="1">
          <mxGeometry x="50" y="10" width="60" height="30" as="geometry" />
        </mxCell>
        <mxCell id="p0LioKt5p2tRiZTA31mQ-8" value="&lt;font style=&quot;font-size: 20px;&quot;&gt;Config&lt;/font&gt;" style="rounded=0;whiteSpace=wrap;html=1;" parent="p0LioKt5p2tRiZTA31mQ-3" vertex="1">
          <mxGeometry x="40" y="80" width="100" height="120" as="geometry" />
        </mxCell>
        <mxCell id="Imkr-QkAkfUDr95EVoMw-20" value="&lt;span style=&quot;font-size: 20px;&quot;&gt;Logger&lt;/span&gt;" style="rounded=0;whiteSpace=wrap;html=1;" parent="p0LioKt5p2tRiZTA31mQ-3" vertex="1">
          <mxGeometry x="180" y="80" width="100" height="120" as="geometry" />
        </mxCell>
        <mxCell id="Imkr-QkAkfUDr95EVoMw-23" value="" style="swimlane;startSize=0;" parent="p0LioKt5p2tRiZTA31mQ-3" vertex="1">
          <mxGeometry x="40" y="250" width="380" height="260" as="geometry" />
        </mxCell>
        <mxCell id="Imkr-QkAkfUDr95EVoMw-24" value="&lt;span style=&quot;font-size: 20px;&quot;&gt;HTTP&lt;br&gt;Server&lt;br&gt;&lt;/span&gt;" style="rounded=0;whiteSpace=wrap;html=1;" parent="Imkr-QkAkfUDr95EVoMw-23" vertex="1">
          <mxGeometry x="20" y="75" width="100" height="120" as="geometry" />
        </mxCell>
        <mxCell id="Imkr-QkAkfUDr95EVoMw-25" value="&lt;span style=&quot;font-size: 20px;&quot;&gt;API Handler&lt;/span&gt;" style="rounded=0;whiteSpace=wrap;html=1;" parent="Imkr-QkAkfUDr95EVoMw-23" vertex="1">
          <mxGeometry x="140" y="75" width="100" height="120" as="geometry" />
        </mxCell>
        <mxCell id="Imkr-QkAkfUDr95EVoMw-26" value="&lt;font style=&quot;font-size: 29px;&quot;&gt;Web Env&lt;/font&gt;" style="text;html=1;strokeColor=none;fillColor=none;align=center;verticalAlign=middle;whiteSpace=wrap;rounded=0;" parent="Imkr-QkAkfUDr95EVoMw-23" vertex="1">
          <mxGeometry x="30" y="20" width="140" height="30" as="geometry" />
        </mxCell>
        <mxCell id="Imkr-QkAkfUDr95EVoMw-27" value="&lt;span style=&quot;font-size: 20px;&quot;&gt;Spawner&lt;/span&gt;" style="rounded=0;whiteSpace=wrap;html=1;" parent="Imkr-QkAkfUDr95EVoMw-23" vertex="1">
          <mxGeometry x="260" y="75" width="100" height="120" as="geometry" />
        </mxCell>
        <mxCell id="qfdnF9BniHNCZiAcq3Qc-4" value="" style="endArrow=none;dashed=1;html=1;rounded=0;exitX=0.5;exitY=0;exitDx=0;exitDy=0;entryX=0.25;entryY=1;entryDx=0;entryDy=0;strokeWidth=3;" parent="Imkr-QkAkfUDr95EVoMw-23" target="uI3tKBbuPjg9BsWLir4P-9" edge="1">
          <mxGeometry width="50" height="50" relative="1" as="geometry">
            <mxPoint x="310" y="75" as="sourcePoint" />
            <mxPoint x="340" y="-40" as="targetPoint" />
          </mxGeometry>
        </mxCell>
        <mxCell id="Imkr-QkAkfUDr95EVoMw-29" value="&lt;span style=&quot;font-size: 20px;&quot;&gt;Data&lt;br&gt;Fetcher&lt;br&gt;&lt;/span&gt;" style="rounded=0;whiteSpace=wrap;html=1;" parent="p0LioKt5p2tRiZTA31mQ-3" vertex="1">
          <mxGeometry x="470" y="325" width="100" height="120" as="geometry" />
        </mxCell>
        <mxCell id="uI3tKBbuPjg9BsWLir4P-9" value="&lt;span style=&quot;font-size: 22px;&quot;&gt;Model&lt;br&gt;&lt;/span&gt;" style="rounded=0;whiteSpace=wrap;html=1;" parent="p0LioKt5p2tRiZTA31mQ-3" vertex="1">
          <mxGeometry x="380" y="80" width="140" height="120" as="geometry" />
        </mxCell>
        <mxCell id="qfdnF9BniHNCZiAcq3Qc-5" value="" style="endArrow=none;dashed=1;html=1;rounded=0;exitX=1;exitY=0.5;exitDx=0;exitDy=0;entryX=0;entryY=0.5;entryDx=0;entryDy=0;strokeWidth=3;" parent="p0LioKt5p2tRiZTA31mQ-3" source="Imkr-QkAkfUDr95EVoMw-27" target="Imkr-QkAkfUDr95EVoMw-29" edge="1">
          <mxGeometry width="50" height="50" relative="1" as="geometry">
            <mxPoint x="360" y="335" as="sourcePoint" />
            <mxPoint x="425" y="210" as="targetPoint" />
          </mxGeometry>
        </mxCell>
        <mxCell id="p0LioKt5p2tRiZTA31mQ-9" value="&lt;font style=&quot;font-size: 20px;&quot;&gt;Configuration File&lt;/font&gt;" style="shape=note;whiteSpace=wrap;html=1;backgroundOutline=1;darkOpacity=0.05;" parent="1" vertex="1">
          <mxGeometry x="-930" y="350" width="190" height="100" as="geometry" />
        </mxCell>
        <mxCell id="Imkr-QkAkfUDr95EVoMw-1" value="" style="endArrow=classic;html=1;rounded=0;" parent="1" edge="1">
          <mxGeometry width="50" height="50" relative="1" as="geometry">
            <mxPoint x="-740" y="400" as="sourcePoint" />
            <mxPoint x="-660" y="399.5" as="targetPoint" />
          </mxGeometry>
        </mxCell>
        <mxCell id="Imkr-QkAkfUDr95EVoMw-18" value="" style="endArrow=classic;html=1;rounded=0;exitX=1;exitY=0.5;exitDx=0;exitDy=0;entryX=0;entryY=0.5;entryDx=0;entryDy=0;" parent="1" source="Imkr-QkAkfUDr95EVoMw-12" target="p0LioKt5p2tRiZTA31mQ-8" edge="1">
          <mxGeometry width="50" height="50" relative="1" as="geometry">
            <mxPoint x="-230" y="640" as="sourcePoint" />
            <mxPoint x="-180" y="590" as="targetPoint" />
          </mxGeometry>
        </mxCell>
        <mxCell id="Imkr-QkAkfUDr95EVoMw-28" value="" style="endArrow=none;dashed=1;html=1;rounded=0;exitX=1;exitY=0.75;exitDx=0;exitDy=0;entryX=0;entryY=0.25;entryDx=0;entryDy=0;strokeWidth=3;" parent="1" source="Imkr-QkAkfUDr95EVoMw-12" target="Imkr-QkAkfUDr95EVoMw-24" edge="1">
          <mxGeometry width="50" height="50" relative="1" as="geometry">
            <mxPoint x="-140" y="480" as="sourcePoint" />
            <mxPoint x="-160" y="595" as="targetPoint" />
          </mxGeometry>
        </mxCell>
        <mxCell id="uI3tKBbuPjg9BsWLir4P-1" value="&lt;font style=&quot;font-size: 20px;&quot;&gt;DataBase&lt;/font&gt;" style="shape=cylinder3;whiteSpace=wrap;html=1;boundedLbl=1;backgroundOutline=1;size=15;" parent="1" vertex="1">
          <mxGeometry x="360" y="860" width="140" height="140" as="geometry" />
        </mxCell>
        <mxCell id="uI3tKBbuPjg9BsWLir4P-2" value="&lt;font style=&quot;font-size: 20px;&quot;&gt;Local HDF recoreds&lt;/font&gt;" style="shape=cylinder3;whiteSpace=wrap;html=1;boundedLbl=1;backgroundOutline=1;size=15;" parent="1" vertex="1">
          <mxGeometry x="610" y="860" width="140" height="140" as="geometry" />
        </mxCell>
        <mxCell id="uI3tKBbuPjg9BsWLir4P-3" value="" style="endArrow=none;dashed=1;html=1;rounded=0;exitX=0.5;exitY=1;exitDx=0;exitDy=0;entryX=0.5;entryY=0;entryDx=0;entryDy=0;strokeWidth=3;entryPerimeter=0;" parent="1" source="Imkr-QkAkfUDr95EVoMw-29" target="uI3tKBbuPjg9BsWLir4P-1" edge="1">
          <mxGeometry width="50" height="50" relative="1" as="geometry">
            <mxPoint x="-70" y="450" as="sourcePoint" />
            <mxPoint x="90" y="635" as="targetPoint" />
            <Array as="points">
              <mxPoint x="540" y="800" />
            </Array>
          </mxGeometry>
        </mxCell>
        <mxCell id="uI3tKBbuPjg9BsWLir4P-4" value="" style="endArrow=none;dashed=1;html=1;rounded=0;entryX=0.5;entryY=0;entryDx=0;entryDy=0;strokeWidth=3;entryPerimeter=0;" parent="1" target="uI3tKBbuPjg9BsWLir4P-2" edge="1">
          <mxGeometry width="50" height="50" relative="1" as="geometry">
            <mxPoint x="540" y="730" as="sourcePoint" />
            <mxPoint x="460" y="870" as="targetPoint" />
            <Array as="points">
              <mxPoint x="540" y="800" />
            </Array>
          </mxGeometry>
        </mxCell>
        <mxCell id="uI3tKBbuPjg9BsWLir4P-6" value="&lt;font style=&quot;font-size: 21px;&quot;&gt;Computing Resources&lt;/font&gt;" style="shape=cube;whiteSpace=wrap;html=1;boundedLbl=1;backgroundOutline=1;darkOpacity=0.05;darkOpacity2=0.1;" parent="1" vertex="1">
          <mxGeometry x="-110" y="-20" width="260" height="130" as="geometry" />
        </mxCell>
        <mxCell id="uI3tKBbuPjg9BsWLir4P-7" value="" style="endArrow=none;dashed=1;html=1;rounded=0;entryX=0.5;entryY=0;entryDx=0;entryDy=0;strokeWidth=3;exitX=0;exitY=0;exitDx=0;exitDy=55;exitPerimeter=0;" parent="1" source="uI3tKBbuPjg9BsWLir4P-6" target="Imkr-QkAkfUDr95EVoMw-11" edge="1">
          <mxGeometry width="50" height="50" relative="1" as="geometry">
            <mxPoint x="-150" y="50" as="sourcePoint" />
            <mxPoint x="-170" y="270" as="targetPoint" />
            <Array as="points">
              <mxPoint x="-320" y="35" />
            </Array>
          </mxGeometry>
        </mxCell>
        <mxCell id="uI3tKBbuPjg9BsWLir4P-8" value="&lt;font style=&quot;font-size: 21px;&quot;&gt;Allocate&lt;br&gt;Resources&lt;br&gt;&lt;/font&gt;" style="text;html=1;align=center;verticalAlign=middle;resizable=0;points=[];autosize=1;strokeColor=none;fillColor=none;" parent="1" vertex="1">
          <mxGeometry x="-440" y="90" width="120" height="60" as="geometry" />
        </mxCell>
        <mxCell id="uI3tKBbuPjg9BsWLir4P-10" value="" style="endArrow=none;dashed=1;html=1;rounded=0;entryX=0.5;entryY=0;entryDx=0;entryDy=0;strokeWidth=3;" parent="1" target="uI3tKBbuPjg9BsWLir4P-9" edge="1">
          <mxGeometry width="50" height="50" relative="1" as="geometry">
            <mxPoint x="150" y="40" as="sourcePoint" />
            <mxPoint x="266.62" y="375" as="targetPoint" />
            <Array as="points">
              <mxPoint x="470" y="40" />
            </Array>
          </mxGeometry>
        </mxCell>
        <mxCell id="uI3tKBbuPjg9BsWLir4P-11" value="&lt;font style=&quot;font-size: 21px;&quot;&gt;Use&lt;br&gt;Resources&lt;br&gt;&lt;/font&gt;" style="text;html=1;align=center;verticalAlign=middle;resizable=0;points=[];autosize=1;strokeColor=none;fillColor=none;" parent="1" vertex="1">
          <mxGeometry x="260" y="50" width="120" height="60" as="geometry" />
        </mxCell>
        <mxCell id="5xz_eeIvkqTTRxGRZQZG-1" value="&lt;span style=&quot;font-size: 22px;&quot;&gt;Model&lt;br&gt;Lib&lt;br&gt;&lt;/span&gt;" style="rounded=0;whiteSpace=wrap;html=1;" parent="1" vertex="1">
          <mxGeometry x="690" y="350" width="140" height="120" as="geometry" />
        </mxCell>
        <mxCell id="5xz_eeIvkqTTRxGRZQZG-2" value="" style="endArrow=none;dashed=1;html=1;rounded=0;exitX=0;exitY=0.5;exitDx=0;exitDy=0;entryX=1;entryY=0.5;entryDx=0;entryDy=0;strokeWidth=3;" parent="1" source="5xz_eeIvkqTTRxGRZQZG-1" target="uI3tKBbuPjg9BsWLir4P-9" edge="1">
          <mxGeometry width="50" height="50" relative="1" as="geometry">
            <mxPoint x="-140" y="480" as="sourcePoint" />
            <mxPoint x="-160" y="595" as="targetPoint" />
          </mxGeometry>
        </mxCell>
        <mxCell id="GMqbpbabeqj_QIA9PoTH-1" value="&lt;font style=&quot;font-size: 20px;&quot;&gt;Model&lt;br&gt;Files&lt;/font&gt;" style="shape=note;whiteSpace=wrap;html=1;backgroundOutline=1;darkOpacity=0.05;" parent="1" vertex="1">
          <mxGeometry x="230" y="140" width="90" height="105" as="geometry" />
        </mxCell>
        <mxCell id="GMqbpbabeqj_QIA9PoTH-2" value="" style="endArrow=none;dashed=1;html=1;rounded=0;entryX=0;entryY=0.5;entryDx=0;entryDy=0;strokeWidth=3;exitX=1;exitY=0.581;exitDx=0;exitDy=0;exitPerimeter=0;" parent="1" source="GMqbpbabeqj_QIA9PoTH-1" target="uI3tKBbuPjg9BsWLir4P-9" edge="1">
          <mxGeometry width="50" height="50" relative="1" as="geometry">
            <mxPoint x="160" y="50" as="sourcePoint" />
            <mxPoint x="480" y="360" as="targetPoint" />
            <Array as="points">
              <mxPoint x="360" y="201" />
              <mxPoint x="360" y="410" />
            </Array>
          </mxGeometry>
        </mxCell>
        <mxCell id="GMqbpbabeqj_QIA9PoTH-3" value="" style="endArrow=none;dashed=1;html=1;rounded=0;entryX=0;entryY=0.5;entryDx=0;entryDy=0;strokeWidth=3;exitX=1;exitY=0.581;exitDx=0;exitDy=0;exitPerimeter=0;entryPerimeter=0;" parent="1" target="GMqbpbabeqj_QIA9PoTH-1" edge="1">
          <mxGeometry width="50" height="50" relative="1" as="geometry">
            <mxPoint x="150" y="70" as="sourcePoint" />
            <mxPoint x="230" y="279" as="targetPoint" />
            <Array as="points">
              <mxPoint x="190" y="70" />
              <mxPoint x="190" y="193" />
            </Array>
          </mxGeometry>
        </mxCell>
        <mxCell id="qfdnF9BniHNCZiAcq3Qc-1" value="&lt;font style=&quot;font-size: 19px;&quot;&gt;Cluster Files&lt;/font&gt;" style="shape=note;whiteSpace=wrap;html=1;backgroundOutline=1;darkOpacity=0.05;" parent="1" vertex="1">
          <mxGeometry x="715" y="150" width="90" height="110" as="geometry" />
        </mxCell>
        <mxCell id="qfdnF9BniHNCZiAcq3Qc-3" value="" style="endArrow=none;dashed=1;html=1;rounded=0;exitX=0.5;exitY=1;exitDx=0;exitDy=0;entryX=0.5;entryY=0;entryDx=0;entryDy=0;strokeWidth=3;exitPerimeter=0;" parent="1" source="qfdnF9BniHNCZiAcq3Qc-1" target="5xz_eeIvkqTTRxGRZQZG-1" edge="1">
          <mxGeometry width="50" height="50" relative="1" as="geometry">
            <mxPoint x="-140" y="480" as="sourcePoint" />
            <mxPoint x="-160" y="595" as="targetPoint" />
          </mxGeometry>
        </mxCell>
      </root>
    </mxGraphModel>
  </diagram>
</mxfile>
